# xmcd
# 
# Track frame offsets:
#     150
#     13330
#     26868
#     43148
#     57535
#     71462
#     84223
#     97961
#     112299
#     126272
#     139938
#     154467
#     167472
#     176493
# 
# Disc length: 2613
# 
# Revision: 0
# Processed by: cddbd v1.5.2PL0 Copyright (c) Steve Scherf et al.
# Submitted via: BonkEnc v1.0.15
# 
DISCID=c70a330e
DTITLE=Various Artist - WAY DOWN IN MISS'SSIPPI -- Charley Patton and His Buddies 1929-1968
DYEAR=2002
DGENRE=Blues
TTITLE0=CHARLEY PATTON - Down The Dirt Road Blues
TTITLE1=CHARLEY PATTON - Pony Blues
TTITLE2=TOMMY JONSON - Cool Drink Of Water Blues
TTITLE3=CHARLEY PATTON - Mississipi Bo Weavil Blues
TTITLE4=CHARLEY PATTON - Screamin' And Hollerin' The Blues
TTITLE5=KID BAILEY - Mississippi Bottom Blues
TTITLE6=CHARLEY PATTON - Banty Rooster Blues
TTITLE7=CHARLEY PATTON - Some Happy Day
TTITLE8=SON HOUSE - Preachin' The Blues Part1
TTITLE9=WILLIE BROWN - Future Blues
TTITLE10=CHARLEY PATTON - Moon Going Down
TTITLE11=BUKKA WHITE - Po' Boy
TTITLE12=THE STAPLE SINGERS - Going Away
TTITLE13=HOWLIN' WOLF - Ain't Going Down That Dirt Road (2nd Acoustic version)
EXTD=Blues and Soul Records No.44
EXTT0=
EXTT1=
EXTT2=
EXTT3=
EXTT4=
EXTT5=
EXTT6=
EXTT7=
EXTT8=
EXTT9=
EXTT10=
EXTT11=
EXTT12=
EXTT13=
PLAYORDER=
